{
    "asset" : {
        "generator" : "Khronos glTF Blender I/O v1.6.16",
        "version" : "2.0"
    },
    "scene" : 0,
    "scenes" : [
        {
            "name" : "Scene",
            "nodes" : [
                0
            ]
        }
    ],
    "nodes" : [
        {
            "mesh" : 0,
            "name" : "Cylinder",
            "scale" : [
                1,
                0.8284271359443665,
                1
            ],
            "translation" : [
                0,
                -0.2071067839860916,
                0
            ]
        }
    ],
    "materials" : [
        {
            "doubleSided" : true,
            "name" : "Bricks",
            "normalTexture" : {
                "index" : 0
            },
            "pbrMetallicRoughness" : {
                "baseColorTexture" : {
                    "index" : 1
                },
                "metallicFactor" : 0,
                "metallicRoughnessTexture" : {
                    "index" : 2
                }
            }
        },
        {
            "doubleSided" : true,
            "name" : "Old concrete",
            "normalTexture" : {
                "extensions" : {
                    "KHR_texture_transform" : {
                        "offset" : [
                            0,
                            -1
                        ],
                        "scale" : [
                            2,
                            2
                        ]
                    }
                },
                "index" : 3
            },
            "pbrMetallicRoughness" : {
                "baseColorTexture" : {
                    "extensions" : {
                        "KHR_texture_transform" : {
                            "offset" : [
                                0,
                                -1
                            ],
                            "scale" : [
                                2,
                                2
                            ]
                        }
                    },
                    "index" : 4
                },
                "metallicRoughnessTexture" : {
                    "extensions" : {
                        "KHR_texture_transform" : {
                            "offset" : [
                                0,
                                -1
                            ],
                            "scale" : [
                                2,
                                2
                            ]
                        }
                    },
                    "index" : 5
                }
            }
        }
    ],
    "meshes" : [
        {
            "name" : "Cylinder",
            "primitives" : [
                {
                    "attributes" : {
                        "POSITION" : 0,
                        "NORMAL" : 1,
                        "TEXCOORD_0" : 2,
                        "TEXCOORD_1" : 3
                    },
                    "indices" : 4,
                    "material" : 0
                },
                {
                    "attributes" : {
                        "POSITION" : 5,
                        "NORMAL" : 6,
                        "TEXCOORD_0" : 7,
                        "TEXCOORD_1" : 8
                    },
                    "indices" : 9,
                    "material" : 1
                }
            ]
        }
    ],
    "textures" : [
        {
            "sampler" : 0,
            "source" : 0
        },
        {
            "sampler" : 0,
            "source" : 1
        },
        {
            "sampler" : 0,
            "source" : 2
        },
        {
            "sampler" : 0,
            "source" : 3
        },
        {
            "sampler" : 0,
            "source" : 4
        },
        {
            "sampler" : 0,
            "source" : 5
        }
    ],
    "images" : [
        {
            "bufferView" : 5,
            "mimeType" : "image/jpeg",
            "name" : "Bricks059_2K_Normal"
        },
        {
            "bufferView" : 6,
            "mimeType" : "image/jpeg",
            "name" : "Bricks059_2K_Color"
        },
        {
            "bufferView" : 7,
            "mimeType" : "image/png",
            "name" : "Bricks059_2K_Roughness"
        },
        {
            "bufferView" : 13,
            "mimeType" : "image/jpeg",
            "name" : "Old concrete_Normal"
        },
        {
            "bufferView" : 14,
            "mimeType" : "image/jpeg",
            "name" : "Old concrete_BaseColor"
        },
        {
            "bufferView" : 15,
            "mimeType" : "image/png",
            "name" : "Old concrete_Metallic-Old concrete_Roughness"
        }
    ],
    "accessors" : [
        {
            "bufferView" : 0,
            "componentType" : 5126,
            "count" : 48,
            "max" : [
                1,
                0.5,
                1
            ],
            "min" : [
                -1,
                -0.5,
                -1
            ],
            "type" : "VEC3"
        },
        {
            "bufferView" : 1,
            "componentType" : 5126,
            "count" : 48,
            "type" : "VEC3"
        },
        {
            "bufferView" : 2,
            "componentType" : 5126,
            "count" : 48,
            "type" : "VEC2"
        },
        {
            "bufferView" : 3,
            "componentType" : 5126,
            "count" : 48,
            "type" : "VEC2"
        },
        {
            "bufferView" : 4,
            "componentType" : 5123,
            "count" : 84,
            "type" : "SCALAR"
        },
        {
            "bufferView" : 8,
            "componentType" : 5126,
            "count" : 32,
            "max" : [
                0.9999999403953552,
                1.000000238418579,
                0.9999999403953552
            ],
            "min" : [
                -0.9999999403953552,
                0.4999997019767761,
                -0.9999999403953552
            ],
            "type" : "VEC3"
        },
        {
            "bufferView" : 9,
            "componentType" : 5126,
            "count" : 32,
            "type" : "VEC3"
        },
        {
            "bufferView" : 10,
            "componentType" : 5126,
            "count" : 32,
            "type" : "VEC2"
        },
        {
            "bufferView" : 11,
            "componentType" : 5126,
            "count" : 32,
            "type" : "VEC2"
        },
        {
            "bufferView" : 12,
            "componentType" : 5123,
            "count" : 42,
            "type" : "SCALAR"
        }
    ],
    "bufferViews" : [
        {
            "buffer" : 0,
            "byteLength" : 576,
            "byteOffset" : 0
        },
        {
            "buffer" : 0,
            "byteLength" : 576,
            "byteOffset" : 576
        },
        {
            "buffer" : 0,
            "byteLength" : 384,
            "byteOffset" : 1152
        },
        {
            "buffer" : 0,
            "byteLength" : 384,
            "byteOffset" : 1536
        },
        {
            "buffer" : 0,
            "byteLength" : 168,
            "byteOffset" : 1920
        },
        {
            "buffer" : 0,
            "byteLength" : 19977,
            "byteOffset" : 2088
        },
        {
            "buffer" : 0,
            "byteLength" : 19446,
            "byteOffset" : 22068
        },
        {
            "buffer" : 0,
            "byteLength" : 78143,
            "byteOffset" : 41516
        },
        {
            "buffer" : 0,
            "byteLength" : 384,
            "byteOffset" : 119660
        },
        {
            "buffer" : 0,
            "byteLength" : 384,
            "byteOffset" : 120044
        },
        {
            "buffer" : 0,
            "byteLength" : 256,
            "byteOffset" : 120428
        },
        {
            "buffer" : 0,
            "byteLength" : 256,
            "byteOffset" : 120684
        },
        {
            "buffer" : 0,
            "byteLength" : 84,
            "byteOffset" : 120940
        },
        {
            "buffer" : 0,
            "byteLength" : 25678,
            "byteOffset" : 121024
        },
        {
            "buffer" : 0,
            "byteLength" : 19677,
            "byteOffset" : 146704
        },
        {
            "buffer" : 0,
            "byteLength" : 78128,
            "byteOffset" : 166384
        }
    ],
    "samplers" : [
        {
            "magFilter" : 9729,
            "minFilter" : 9987
        }
    ],
    "buffers" : [
        {
            "byteLength" : 244512,
            "uri" : "data:application/octet-stream;base64,"
        }
    ]
}
